<svg width="1080" height="856" viewBox="0 0 1080 856" fill="none" xmlns="http://www.w3.org/2000/svg">
  <style>
    /* Estilo para el modo claro (o si prefers-color-scheme no es soportado) */
    .icon-fill {
      fill: #6B21A8; /* Un morado oscuro similar a purple-700 de Tailwind */
    }

    /* Estilo para modo oscuro */
    @media (prefers-color-scheme: dark) {
      .icon-fill {
        fill: #C4B5FD; /* Un morado más claro similar a purple-300 de Tailwind */
      }
    }
  </style>

  <g transform="translate(0.000000,856.000000) scale(0.100000,-0.100000)" class="icon-fill">
    <path d="M1710 8119 c-866 -10 -1150 -20 -1200 -41 -50 -22 -149 -125 -159
    -168 -5 -20 -11 -1380 -13 -3145 -3 -3318 -5 -3172 43 -3267 45 -88 144 -152
    262 -169 35 -5 838 -9 1845 -9 l1782 0 11 -24 c26 -56 -59 -383 -136 -521 -38
    -69 -148 -201 -200 -241 -49 -37 -136 -144 -164 -200 -28 -55 -21 -65 54 -85
    68 -17 2900 -26 2958 -9 31 9 37 15 37 39 0 43 -67 135 -181 251 -58 58 -124
    130 -148 159 -79 101 -133 236 -170 422 -31 161 -31 165 -16 185 13 18 69 19
    1802 24 1661 5 1792 7 1837 23 154 54 217 133 237 299 6 55 9 1120 7 3138 l-3
    3055 -28 80 c-31 88 -78 147 -137 172 -88 39 -451 42 -4105 41 -1920 -1 -3816
    -5 -4215 -9z m8049 -428 l21 -21 2 -2218 c1 -1219 2 -2346 2 -2503 1 -228 -2
    -289 -13 -302 -12 -16 -338 -17 -4501 -17 -4162 0 -4489 1 -4501 17 -12 13
    -15 409 -19 2462 -3 1345 -2 2470 2 2500 12 93 -40 85 631 91 326 3 2339 7
    4474 8 l3881 4 21 -21z m-4399 -5719 c70 -37 112 -170 76 -241 -23 -43 -91
    -99 -131 -107 -48 -9 -104 1 -135 24 -63 47 -102 141 -86 206 8 32 61 93 101
    118 40 24 129 24 175 0z"/>
    <path d="M5492 6358 c-12 -15 -50 -126 -87 -253 -74 -253 -135 -458 -210 -707
    -14 -46 -43 -146 -66 -223 -22 -77 -47 -160 -55 -185 -9 -25 -22 -67 -29 -95
    -8 -27 -21 -72 -29 -100 -148 -501 -206 -711 -204 -735 3 -25 3 -25 113 -26
    61 -1 115 -3 120 -4 26 -6 51 2 63 20 6 11 44 126 82 257 76 256 199 675 207
    708 3 11 23 79 45 150 22 72 43 144 48 160 5 17 26 89 48 160 22 72 42 139 45
    150 3 11 13 45 22 75 9 30 20 69 25 85 36 129 93 328 119 416 17 58 31 118 31
    133 l0 26 -139 0 c-99 0 -141 -4 -149 -12z"/>
    <path d="M5984 5857 c-3 -9 -4 -79 -2 -157 4 -171 -4 -161 179 -239 184 -79
    210 -90 254 -111 62 -29 126 -57 291 -126 84 -35 196 -84 249 -109 52 -25 98
    -45 102 -45 14 0 73 -52 73 -65 0 -16 -53 -46 -110 -63 -64 -20 -163 -59 -475
    -190 -428 -179 -526 -224 -543 -245 -14 -18 -22 -305 -8 -310 18 -6 84 17 186
    66 52 25 165 77 250 115 85 39 209 96 275 127 66 31 129 60 140 65 575 262
    661 303 676 332 6 12 13 68 14 125 4 153 45 122 -460 353 -339 156 -518 238
    -638 294 -43 20 -80 36 -82 36 -2 0 -73 34 -160 75 -179 86 -202 94 -211 72z"/>
    <path d="M4380 5800 c-74 -33 -153 -69 -175 -80 -22 -10 -67 -31 -100 -46
    -153 -69 -315 -145 -590 -278 -355 -173 -444 -219 -479 -251 -30 -28 -33 -36
    -39 -109 -10 -133 6 -151 211 -248 56 -26 150 -71 210 -99 92 -44 353 -166
    640 -300 46 -22 85 -39 88 -39 7 0 205 -90 264 -119 82 -42 107 -46 121 -19
    15 28 22 177 12 253 l-8 59 -75 29 c-66 24 -175 71 -360 154 -136 62 -501 215
    -592 250 -72 27 -94 44 -85 68 8 18 169 96 483 231 133 57 311 135 395 174 85
    39 169 77 187 85 18 8 37 27 44 42 6 16 11 89 12 163 1 112 -1 135 -14 137 -8
    2 -76 -24 -150 -57z"/>
  </g>
</svg>